<svg xmlns="http://www.w3.org/2000/svg" id="Capa_2" data-name="Capa 2" viewBox="0 0 366.13 74.67"><defs><style>      .cls-1 {        fill: #fff;        stroke-width: 0px;      }    </style></defs><g id="Capa_1-2" data-name="Capa 1"><g><path class="cls-1" d="M271.69,33.29c2.28-1.22,3.55-1.46,4-2.21,3.56-5.91,9.55-6.18,15.42-7.11,10.26-1.63,20.46-3.66,30.71-5.39,1.51-.26,4.26-.21,4.53.46.68,1.68,1.1,4.65.13,5.6-2.64,2.61-5.75,5.47-9.18,6.43-13.4,3.75-13.46,3.49-12.96,17.53.13,3.58-.09,7.2.39,10.72.7,5.05-1.9,7.93-5.82,10.09-4.03,2.23-6.24.93-6.25-3.65-.02-8.4.01-16.8.1-25.21.05-4.08-1.69-5.43-5.55-4.03-.87.32-1.79.55-2.71.69-5.97.9-10.92,1.96-11.74,10.02-.38,3.71-4.75,7.59-8.23,10.17-1.93,1.43-6.06,1.19-8.65.22-10.14-3.81-20.04-8.28-30.08-12.36-4.31-1.75-7.74.63-7.74,5.29,0,2,.35,4.06.91,5.98,1.35,4.64-.99,7.55-4.51,9.72-3.91,2.41-7.21.72-7.99-3.82-1.05-6.07-1.56-6.14-7-2.96-6.97,4.07-13.85,8.57-21.33,11.42-5.9,2.25-12.68,3.24-19.02,3.1-11.72-.27-17.16-5.82-17.58-17.43-.23-6.3-.19-13.17,2.07-18.84,2.42-6.08,7.21-11.3,14.22-13.73,4.8-1.67,9.27-4.32,13.83-6.63,2.49-1.27,5.12-2.44,7.12.26,2.11,2.84-.06,5.03-2.15,6.71-3.76,3.01-7.77,5.71-11.5,8.74-.99.8-1.34,2.39-1.99,3.61,1.61.48,3.62,1.81,4.75,1.27,3.48-1.65,6.51-4.25,9.96-5.99,1.5-.76,3.61-.31,5.44-.41.06,2.02.96,4.69,0,5.92-2.43,3.11-5.46,5.9-8.69,8.22-3.26,2.34-7.04,3.95-10.57,5.92-2.64,1.48-5.53,3.22-4.53,6.72,1.03,3.59,4.58,3.41,7.49,3.19,11.21-.86,20.94-5.41,29.69-12.32,1.91-1.51,4.26-2.47,6.1-4.03,1-.84,1.98-2.44,1.92-3.66-.29-6.57,3.72-10.77,8.09-14.5,1.29-1.1,4.48-1,6.31-.25,8.19,3.34,16.13,7.31,24.33,10.63,3.25,1.31,6.92,1.88,10.44,2.13,4.01.28,6.51-1.75,6.34-6.16-.09-2.33-.07-4.67-.22-7-.36-5.64,2.7-9.43,6.89-12.47,2.99-2.16,4.55-1.44,4.72,2.32.24,5.24.06,10.51.06,17.04"></path><path class="cls-1" d="M70.38,74.67c-2.12-1.75-5.08-3.1-6.2-5.35-2.47-4.96-4.17-10.33-5.92-15.62-2.73-8.26-3.95-8.48-11.96-5.76-8.18,2.79-16.7,4.64-25.16,6.48-3.85.84-7.41,1.43-10.41,4.47-1.4,1.42-4.19,2.14-6.31,2.06-4.25-.16-5.7-3.26-3.19-6.63,8.82-11.82,17.61-23.68,26.86-35.17,3.15-3.92,7.41-7.07,11.53-10.08,6.74-4.94,12.99-4.33,18.71,1.81,2.39,2.56,4.77,5.59,5.79,8.84,1.32,4.23,3.27,5.76,7.63,5.34,1.86-.18,5.02.68,5.53,1.91.71,1.72.23,4.91-1.03,6.31-5.69,6.31-5.13,12.87-1.87,19.87,1.51,3.23,3.12,6.43,4.36,9.76,2.15,5.78-1.52,10.88-8.35,11.74M31.24,41.36c5.02-1.84,10.12-3.57,15.1-5.58,4.68-1.89,5.31-3.88,3.04-8.22-2.77-5.3-5.29-6.51-9.32-3.36-4.34,3.39-8.1,7.54-11.9,11.56-.77.81-1.18,2.79-.72,3.71.45.91,2.22,1.17,3.8,1.89"></path><path class="cls-1" d="M101.1,43.1c.22-3.87.47-7.75.64-11.62.17-3.98-1.67-5.61-5.67-5.36-4.34.26-8.7.67-13.02.44-4.01-.21-5.01-2.56-3.09-6.02,3.63-6.53,6.95-8.2,14.43-7.31,5.8.69,10.88-.12,13.56-6.29.48-1.09,1.37-2.21,2.37-2.83,1.72-1.05,3.67-1.72,5.53-2.54.26,1.71.88,3.46.7,5.13-.47,4.54,2.52,3.56,4.82,3.03,10.59-2.42,21.1-5.22,31.72-7.47,5.74-1.21,11.64-1.86,17.5-2.24,4.76-.31,7.68,2.2,7.59,5.62-.09,3.83-3.89,7.77-7.87,7.79-3.09.02-6.36-1.16-9.25-.49-13.88,3.24-27.69,6.75-41.43,10.55-4.22,1.17-5.9,5.06-5.61,9.27.58,8.19,1.49,16.36,2.27,24.53.22,2.31.68,4.62.63,6.92-.14,5.75-5.33,9.63-10.85,7.88-1.35-.43-2.91-2.48-3.08-3.94-1.01-8.31-1.63-16.67-2.38-25.01.16-.02.32-.04.49-.06"></path><path class="cls-1" d="M320.85,43.38c-2.41-1.58-1.56-4.31.78-6.95,6.24-7.04,13.86-10.4,23.38-8.56,3.8.74,7.73,1.05,11.4,2.21,7.15,2.24,10.89,9.15,9.42,16.56-2.59,13.09-15.31,23.93-29.27,24.68-3.84.21-7.79.03-11.57-.64-4.71-.84-7.55-4.21-7.17-8.95.47-5.75,1.84-11.43,3.03-18.33M341.02,39.69h-2.46c-3.01,0-6.51-.04-7.33,3.45-1.02,4.35-1.25,8.93-1.36,13.42-.02.73,2.3,2.01,3.65,2.18,6.46.82,12.36-.62,16.78-5.73,5.17-5.97,3.36-11.09-4.37-12.64-1.96-.4-3.97-.55-4.92-.68"></path></g></g></svg>